<?xml version="1.0" encoding="UTF-8"?>
<svg id="Layer_2" data-name="Layer 2" xmlns="http://www.w3.org/2000/svg" viewBox="0 0 325.91 55.32">
  <defs>
    <style>
      .cls-1 {
        fill: #fff;
      }

      .cls-2 {
        fill: #ed2024;
      }

      .cls-3 {
        fill: #231f20;
      }
    </style>
  </defs>
  <g id="Layer_1-2" data-name="Layer 1">
    <path class="cls-2" d="M82.91,27.61c0,10.82-1.72,19.94-4.08,22.67-1.15,2.81-17.4,5.04-37.31,5.04-18.7,0-34.19-1.98-36.94-4.55h-.01C1.97,48.83,0,39.2,0,27.61,0,15.23,2.25,5.08,5.11,4.15h.01C8.94,1.78,23.79,0,41.53,0s33.37,1.87,36.69,4.35c.15,.11,.27,.21,.38,.33,2.47,2.35,4.32,11.73,4.32,22.92Z"/>
    <path class="cls-1" d="M57.38,31.77h-5.58v-9.88c0-2.74-2.24-4.99-4.99-4.99h-10.72c-2.74,0-4.99,2.24-4.99,4.99v9.88h-5.58c-.97,0-1.76,.79-1.76,1.76,0,2.69,2.2,4.89,4.89,4.89h25.59c2.69,0,4.89-2.2,4.89-4.89,0-.97-.79-1.76-1.76-1.76Z"/>
    <g>
      <path class="cls-3" d="M86.76,6.32h8.4l4.9,15.62,5.24-15.62h7.45l-9.64,24.73v18.11h-7.63V31.05l-8.72-24.73Z"/>
      <path class="cls-3" d="M131.56,34.79h-13.45v1.75c0,2.84,.31,4.73,.94,5.69,.62,.96,1.44,1.44,2.46,1.44,2.18,0,3.4-1.8,3.67-5.4l6.38,.5c-1.13,7.37-4.53,11.05-10.18,11.05-3.49,0-6.14-1.45-7.95-4.36-1.81-2.91-2.72-6.8-2.72-11.68,0-5.5,.96-9.7,2.88-12.6,1.92-2.9,4.5-4.35,7.73-4.35,2.91,0,5.35,1.28,7.3,3.85s2.93,7.27,2.93,14.11Zm-6.76-5.12c.02-.38,.03-.67,.03-.88,0-4.08-1.11-6.12-3.34-6.12s-3.3,2.33-3.32,7h6.64Z"/>
      <path class="cls-3" d="M152.69,25.09l-5.11,1.88c-.68-2.87-1.93-4.3-3.76-4.3-1.49,0-2.24,.92-2.24,2.76,0,1.05,.28,1.84,.84,2.39,.56,.54,1.71,1.19,3.46,1.95,1.97,.86,3.41,1.61,4.32,2.26s1.69,1.63,2.31,2.93c.63,1.31,.94,2.81,.94,4.5,0,2.93-.86,5.39-2.57,7.38-1.71,1.99-4.1,2.98-7.17,2.98-5.78,0-8.98-3.15-9.61-9.45l5.7-1.13c.47,3.16,1.82,4.74,4.04,4.74,1.9,0,2.85-.98,2.85-2.95,0-1.05-.28-1.84-.84-2.39-.56-.54-1.64-1.13-3.25-1.76-2.95-1.17-4.98-2.58-6.08-4.24-1.1-1.65-1.65-3.57-1.65-5.74,0-3.05,.87-5.5,2.61-7.34s3.91-2.76,6.52-2.76c4.56,0,7.46,2.76,8.7,8.29Z"/>
      <path class="cls-3" d="M157.04,6.32h7.17v14.5c1.29-2.68,3.39-4.02,6.31-4.02,1.75,0,3.12,.5,4.13,1.51s1.65,2.28,1.92,3.81c.27,1.54,.41,3.77,.41,6.7v20.34h-7.17V28.8c0-2.07-.16-3.45-.47-4.13-.31-.68-.96-1.02-1.95-1.02s-1.74,.33-2.31,.97c-.58,.65-.86,2.13-.86,4.43v20.11h-7.17V6.32Z"/>
      <path class="cls-3" d="M189.08,14.86h-7.27V6.1h7.27V14.86Zm-7.22,2.6h7.17v31.7h-7.17V17.46Z"/>
      <path class="cls-3" d="M191.09,17.46h6.9l3.53,18.69,3.57-18.69h5.96l-7.04,31.7h-5.67l-7.25-31.7Z"/>
      <path class="cls-3" d="M219.5,27.54l-6.79-.82c.32-3.18,1.42-5.63,3.29-7.34,1.87-1.72,4.23-2.57,7.08-2.57,2.41,0,4.34,.57,5.8,1.71,1.46,1.14,2.38,2.46,2.76,3.97,.38,1.51,.57,3.84,.57,7v12.65c0,3.93,.14,6.28,.43,7.03h-6.66c-.24-.86-.36-2.48-.36-4.86-1.57,3.68-3.92,5.52-7.03,5.52-2,0-3.62-.74-4.87-2.21s-1.88-3.62-1.88-6.45c0-3.54,.95-6.27,2.84-8.21,1.89-1.94,5.35-3.09,10.35-3.47v-1.19c0-2.11-.17-3.58-.52-4.39-.35-.82-1.02-1.22-2.01-1.22-1.82,0-2.83,1.62-3.01,4.87Zm5.54,6.5c-2.09,.29-3.57,.86-4.46,1.71s-1.33,2.27-1.33,4.27c0,2.67,.8,4,2.39,4,.86,0,1.65-.6,2.35-1.8,.7-1.2,1.06-3.41,1.06-6.62v-1.56Z"/>
      <path class="cls-3" d="M234.22,6.32h21.64V14.36h-7.09V49.16h-7.63V14.36h-6.92V6.32Z"/>
      <path class="cls-3" d="M256.11,17.46h7.17v20.36c0,2.05,.15,3.43,.46,4.12s.97,1.04,1.98,1.04c.93,0,1.64-.28,2.12-.85,.48-.57,.78-1.35,.88-2.34s.15-3.04,.15-6.14V17.46h7.17v31.7h-6.74v-4.33c-1.02,2.16-2.03,3.53-3.04,4.11-1.01,.59-2.2,.88-3.57,.88-1.85,0-3.26-.47-4.25-1.41-.98-.94-1.62-2.13-1.91-3.58-.29-1.44-.43-3.69-.43-6.75V17.46Z"/>
      <path class="cls-3" d="M281.31,6.32h7.04v14.12c1.39-2.28,3.16-3.42,5.33-3.42,2.37,0,4.34,1.32,5.91,3.95,1.57,2.64,2.36,6.69,2.36,12.15s-.77,9.35-2.31,12.29-3.79,4.41-6.75,4.41-4.91-1.6-5.99-4.8c-.49,1.09-.94,2.47-1.35,4.14h-4.25V6.32Zm7.04,29.67c0,2.9,.22,4.91,.66,6.02,.44,1.11,1.21,1.66,2.33,1.66,1.23,0,2.08-.79,2.53-2.37s.68-4.24,.68-7.98-.22-6.26-.66-7.93c-.44-1.67-1.25-2.51-2.43-2.51-2.08,0-3.11,1.93-3.11,5.8v7.3Z"/>
      <path class="cls-3" d="M325.91,34.79h-13.45v1.75c0,2.84,.31,4.73,.94,5.69,.62,.96,1.44,1.44,2.46,1.44,2.18,0,3.4-1.8,3.67-5.4l6.38,.5c-1.13,7.37-4.53,11.05-10.18,11.05-3.49,0-6.14-1.45-7.95-4.36-1.81-2.91-2.72-6.8-2.72-11.68,0-5.5,.96-9.7,2.88-12.6,1.92-2.9,4.5-4.35,7.73-4.35,2.91,0,5.35,1.28,7.3,3.85,1.96,2.56,2.93,7.27,2.93,14.11Zm-6.76-5.12c.02-.38,.03-.67,.03-.88,0-4.08-1.12-6.12-3.34-6.12s-3.3,2.33-3.32,7h6.64Z"/>
    </g>
  </g>
</svg>
